<?xml version="1.0" standalone="no"?>
<!DOCTYPE svg PUBLIC "-//W3C//DTD SVG 20010904//EN"
 "http://www.w3.org/TR/2001/REC-SVG-20010904/DTD/svg10.dtd">
<svg version="1.0" xmlns="http://www.w3.org/2000/svg"
 width="984.000000pt" height="984.000000pt" viewBox="0 0 984.000000 984.000000"
 preserveAspectRatio="xMidYMid meet">
<metadata>
Created by potrace 1.11, written by Peter Selinger 2001-2013
</metadata>
<g transform="translate(0.000000,984.000000) scale(0.100000,-0.100000)"
fill="#000000" stroke="none">
<path d="M4054 7874 c1 -41 -2 -78 -6 -80 -5 -3 -5 -11 -1 -17 4 -7 8 -779 9
-1717 1 -938 5 -1721 9 -1740 4 -19 10 -39 15 -44 5 -5 6 -15 3 -22 -3 -8 -1
-20 4 -27 4 -6 8 -21 8 -32 0 -11 5 -26 12 -33 6 -7 10 -21 8 -32 -2 -11 0
-20 5 -20 8 0 34 -59 31 -72 0 -5 4 -8 10 -8 5 0 7 -5 4 -10 -3 -6 -1 -10 5
-10 7 0 10 -7 6 -15 -3 -9 0 -15 9 -15 7 0 17 -5 21 -12 5 -7 2 -9 -7 -4 -8 4
-6 1 5 -8 10 -8 16 -19 13 -24 -3 -4 3 -15 14 -22 10 -8 19 -18 19 -22 0 -10
28 -45 64 -80 15 -15 25 -28 21 -28 -3 0 0 -7 9 -15 8 -8 20 -15 26 -15 6 0 8
-4 5 -10 -3 -5 -2 -10 2 -10 15 0 78 -63 75 -74 -2 -6 -1 -8 3 -4 4 3 15 -1
26 -10 11 -9 21 -15 23 -12 6 8 46 -32 46 -46 0 -7 -17 -21 -37 -31 -21 -9
-40 -20 -43 -23 -3 -3 -22 -16 -42 -29 -21 -12 -38 -27 -38 -32 0 -5 -5 -9
-11 -9 -12 0 -149 -136 -149 -148 0 -4 -11 -20 -25 -36 -14 -16 -32 -46 -42
-67 -9 -21 -19 -36 -23 -34 -3 2 -7 -6 -7 -17 -1 -12 -7 -24 -14 -28 -6 -4 -8
-13 -5 -19 4 -6 2 -11 -3 -11 -6 0 -10 -3 -10 -7 3 -16 -14 -73 -21 -73 -4 0
-6 -16 -4 -35 2 -27 -1 -35 -14 -35 -12 0 -13 -3 -5 -8 9 -6 12 -47 3 -47 -1
0 -3 -25 -4 -55 -1 -30 -5 -60 -9 -67 -4 -6 -4 -14 1 -17 5 -3 7 -23 6 -46 -1
-22 2 -40 6 -40 5 0 5 -14 0 -30 -6 -22 -5 -28 2 -24 7 5 9 1 5 -9 -3 -10 -3
-17 1 -17 4 0 7 -16 7 -35 -1 -20 4 -40 11 -46 7 -6 10 -17 7 -25 -3 -8 -1
-14 4 -14 5 0 9 -10 10 -22 1 -11 6 -24 10 -27 4 -3 9 -15 11 -25 2 -10 10
-25 18 -33 8 -8 12 -19 9 -24 -4 -5 -2 -9 3 -9 5 0 15 -13 22 -30 7 -16 17
-30 23 -30 6 0 8 -3 5 -6 -3 -3 5 -17 18 -31 13 -14 24 -32 24 -40 0 -8 4 -12
8 -9 5 3 22 -13 38 -34 16 -22 33 -40 37 -40 14 0 36 -27 29 -35 -4 -5 -1 -5
6 -1 7 4 15 1 18 -8 3 -9 10 -14 14 -11 4 3 11 -2 14 -11 3 -8 10 -12 16 -9 5
3 10 2 10 -3 0 -5 16 -17 35 -28 19 -10 35 -22 35 -27 0 -4 4 -6 9 -2 5 3 17
-2 25 -11 9 -8 16 -13 16 -9 0 3 10 0 23 -7 12 -7 28 -11 35 -10 6 2 12 -3 12
-9 0 -7 3 -9 6 -6 4 3 15 2 25 -3 10 -6 29 -11 43 -12 15 -1 26 -5 26 -9 0 -4
8 -6 18 -4 9 1 22 0 27 -4 16 -9 275 -9 275 0 0 5 5 9 11 9 5 0 7 -5 3 -12 -5
-7 -3 -8 7 -2 14 9 29 13 62 16 9 1 17 5 17 9 0 4 8 6 18 5 9 -2 26 3 37 9 11
7 28 11 38 10 9 -2 15 1 11 6 -3 5 2 9 10 9 9 0 16 5 16 11 0 8 5 8 15 -1 12
-10 15 -10 15 4 0 9 6 16 13 16 16 0 112 65 152 102 17 15 38 31 48 34 9 3 15
9 12 13 -5 10 46 57 58 53 5 -1 6 2 3 7 -4 5 -1 15 6 23 7 7 24 30 38 50 13
20 28 34 32 32 4 -3 5 1 2 9 -3 8 2 20 10 27 9 7 13 16 10 21 -3 5 0 9 5 9 6
0 11 3 10 8 -2 14 13 52 20 48 4 -3 8 4 9 15 4 43 6 49 14 49 5 0 6 5 3 10 -4
6 -2 16 3 23 5 7 13 35 16 62 4 28 9 58 12 68 3 10 0 17 -8 17 -8 0 -6 4 5 11
13 8 15 14 7 30 -6 10 -7 19 -2 19 4 0 7 15 5 32 -2 18 -4 39 -3 46 1 28 0 39
-2 74 -2 20 -6 40 -10 44 -4 4 -3 13 3 21 9 10 8 13 0 13 -7 0 -9 5 -6 10 3 6
0 10 -7 10 -9 0 -9 3 2 10 9 6 11 10 3 10 -7 0 -10 7 -7 15 4 8 2 15 -3 15 -5
0 -10 15 -11 33 -2 17 -7 34 -12 35 -6 2 -10 9 -10 16 0 7 -9 31 -20 54 -11
22 -20 46 -20 52 0 5 -4 10 -8 10 -5 0 -17 16 -28 35 -10 19 -23 35 -28 35 -5
0 -7 3 -3 6 3 3 -14 27 -38 52 -24 25 -41 50 -39 54 3 4 -1 8 -8 8 -7 0 -35
20 -62 45 -26 25 -52 42 -57 39 -5 -3 -9 2 -9 11 0 9 -4 14 -9 11 -5 -3 -11 1
-15 9 -3 9 -12 12 -22 8 -12 -4 -15 -3 -10 5 4 7 1 12 -9 12 -9 0 -13 4 -10
10 3 5 0 7 -8 4 -8 -3 -22 3 -32 12 -17 17 -17 18 4 28 11 5 21 13 21 18 0 4
5 8 10 8 6 0 29 18 50 39 22 22 40 38 40 36 0 -3 24 19 53 48 29 29 51 55 49
60 -2 4 1 7 7 7 5 0 19 16 31 35 12 19 26 33 31 29 5 -3 8 -2 7 3 -4 14 13 53
23 53 5 0 9 7 9 15 0 7 8 19 18 24 9 6 13 11 9 11 -5 0 0 16 12 36 12 19 21
42 21 50 0 8 4 12 10 9 6 -3 7 1 4 9 -3 9 -2 16 3 16 5 0 10 12 11 27 1 15 5
29 10 32 6 6 11 19 16 46 1 6 4 15 7 20 3 6 4 20 3 33 0 12 2 22 5 22 7 0 11
36 15 117 1 18 4 35 8 38 3 3 2 21 -2 40 -5 21 -3 38 3 44 6 6 7 11 1 11 -10
0 -11 91 0 108 4 7 4 12 -1 12 -4 0 -8 16 -9 35 0 19 2 35 6 35 3 0 6 9 6 20
0 11 -4 20 -8 20 -7 0 -3 34 7 50 3 6 2 10 -4 10 -10 0 -10 18 2 37 4 6 2 15
-4 19 -8 4 -7 9 2 15 11 7 11 9 1 9 -10 0 -10 5 -2 20 6 12 7 20 1 20 -10 0
-9 19 2 37 4 6 2 15 -4 19 -8 4 -7 9 2 15 12 7 12 9 0 9 -10 0 -11 3 -2 14 7
9 8 17 2 20 -11 7 -9 25 3 45 5 8 4 16 -4 21 -13 8 -13 16 1 42 6 11 5 18 -4
21 -8 4 -8 8 -2 14 12 9 16 43 6 43 -9 0 -6 74 3 89 4 6 1 11 -6 11 -9 0 -9 3
2 10 8 5 10 10 4 10 -11 0 -11 70 0 88 3 6 1 12 -6 14 -8 3 -8 9 -1 23 6 11 7
30 3 47 -5 15 -5 28 0 28 5 0 5 12 1 28 -5 15 -4 37 0 50 5 12 4 22 0 22 -11
0 -9 19 2 38 5 7 3 12 -3 12 -8 0 -7 6 1 21 8 16 8 23 0 29 -8 5 -9 14 -2 33
6 15 7 27 2 27 -10 0 -8 71 3 88 4 7 4 12 -1 12 -10 0 -10 71 0 88 5 6 5 12 0
12 -4 0 -8 49 -8 110 0 60 4 110 9 110 5 0 4 6 -1 13 -11 14 -11 97 0 115 5 6
4 12 0 12 -11 0 -10 90 0 108 5 6 4 12 0 12 -5 0 -8 39 -8 88 1 76 -2 91 -22
118 -13 17 -23 35 -23 40 0 5 -11 21 -24 36 -14 14 -22 29 -19 32 4 3 1 6 -5
6 -7 0 -12 7 -12 16 0 8 -4 13 -9 9 -5 -3 -12 3 -15 13 -4 10 -26 39 -50 65
-24 26 -42 47 -40 47 2 0 -12 16 -32 35 -19 19 -38 35 -42 35 -4 0 -7 -459 -8
-1020 0 -573 4 -1020 8 -1020 5 0 6 -6 1 -12 -11 -19 -10 -102 2 -111 7 -6 6
-10 -1 -13 -9 -4 -11 -51 -4 -89 2 -6 1 -12 0 -15 -7 -17 -4 -116 5 -122 7 -6
7 -10 -1 -15 -10 -8 -11 -59 -1 -87 3 -8 3 -17 -1 -20 -5 -3 -8 -37 -7 -76 1
-39 -2 -73 -6 -76 -4 -2 -6 -13 -4 -24 2 -11 0 -20 -6 -20 -5 0 -7 -11 -5 -24
3 -16 -1 -27 -10 -30 -9 -3 -13 -10 -9 -16 7 -11 -54 -150 -67 -150 -4 0 -8
-9 -8 -21 0 -11 -4 -18 -9 -14 -5 3 -12 -3 -15 -13 -4 -10 -43 -56 -88 -103
-44 -46 -77 -77 -73 -69 5 8 -8 -1 -28 -20 -20 -19 -40 -35 -44 -35 -4 0 -18
-10 -32 -23 -13 -12 -26 -20 -29 -17 -3 2 -10 -2 -16 -11 -6 -8 -20 -16 -30
-18 -9 -1 -21 -7 -24 -12 -4 -5 -19 -15 -34 -21 -21 -10 -30 -10 -40 0 -8 7
-20 13 -28 15 -8 2 -22 10 -31 18 -9 8 -19 11 -22 7 -4 -3 -7 -1 -7 5 0 7 -5
12 -11 12 -6 0 -17 7 -26 15 -8 8 -18 13 -23 10 -5 -3 -11 4 -15 15 -4 11 -10
18 -15 15 -5 -3 -13 3 -19 12 -5 10 -13 18 -18 18 -4 0 -7 4 -5 8 1 5 -2 6 -7
3 -5 -4 -19 6 -30 20 -12 15 -21 24 -21 20 0 -4 -7 -1 -15 8 -8 8 -15 20 -15
26 0 6 -4 9 -8 6 -5 -3 -17 7 -28 21 -10 15 -29 37 -42 50 -13 13 -20 23 -17
23 4 0 0 7 -7 15 -30 33 -38 45 -32 45 4 0 0 8 -9 18 -10 10 -14 22 -10 25 3
4 1 7 -6 7 -7 0 -9 5 -6 10 3 6 2 10 -3 10 -9 0 -32 65 -39 110 -3 13 -10 28
-16 32 -9 5 -8 8 3 8 12 1 11 3 -3 11 -9 6 -14 15 -10 22 8 13 11 57 3 57 -9
0 -5 164 4 179 6 9 5 12 -1 8 -12 -7 -11 112 1 132 6 8 5 12 0 8 -5 -3 -9 116
-9 293 0 177 4 296 9 293 5 -4 6 0 0 8 -12 19 -12 479 0 472 5 -4 6 -1 0 8
-12 20 -12 181 0 198 7 9 7 12 1 9 -7 -4 -10 95 -10 292 0 177 4 296 9 293 5
-4 6 0 0 8 -12 19 -12 479 0 472 5 -4 6 -1 0 8 -12 20 -12 181 0 198 7 9 7 13
1 9 -7 -4 -10 42 -11 133 0 129 -1 140 -22 162 -12 13 -22 29 -22 35 0 7 -5
12 -11 12 -5 0 -8 4 -4 9 3 6 -3 14 -12 20 -10 6 -13 11 -8 11 6 0 6 3 -1 8
-6 4 -24 25 -40 47 -32 44 -66 85 -101 121 -13 13 -23 29 -23 35 0 7 -3 9 -7
6 -3 -4 -12 2 -20 13 -24 34 -30 23 -29 -56z m934 -4533 c68 -3 82 -5 82 -13
0 -4 5 -8 11 -8 5 0 7 6 4 13 -4 6 -1 5 7 -3 7 -8 22 -17 33 -19 11 -1 29 -8
40 -14 11 -6 23 -10 28 -9 4 1 7 -2 7 -8 0 -5 7 -10 15 -10 8 0 15 -4 15 -10
0 -5 7 -10 15 -10 8 0 15 -4 15 -10 0 -5 7 -10 16 -10 8 0 12 -4 9 -10 -3 -5
1 -10 10 -10 9 0 13 -4 10 -10 -3 -5 -1 -10 4 -10 15 0 51 -32 45 -41 -2 -4 5
-10 16 -14 11 -4 18 -10 15 -15 -3 -5 5 -16 17 -24 12 -9 19 -16 14 -16 -5 0
-2 -8 7 -18 10 -10 14 -22 10 -25 -3 -4 -1 -7 6 -7 7 0 9 -4 6 -10 -3 -5 -1
-10 5 -10 7 0 10 -6 8 -12 -3 -7 1 -19 9 -26 7 -8 11 -18 7 -23 -3 -6 0 -16 6
-24 10 -12 10 -15 -1 -15 -11 -1 -10 -3 1 -10 11 -6 16 -24 15 -59 0 -28 3
-51 7 -51 4 0 6 -6 3 -12 -2 -7 -6 -42 -10 -78 -3 -35 -11 -70 -17 -77 -8 -10
-7 -13 3 -14 10 0 11 -2 1 -6 -6 -2 -10 -9 -6 -14 3 -5 0 -9 -5 -9 -6 0 -11
-11 -11 -25 0 -14 -4 -25 -10 -25 -5 0 -9 -4 -7 -8 4 -16 -67 -117 -118 -165
-60 -59 -130 -109 -139 -100 -3 4 -6 1 -6 -6 0 -7 -4 -9 -10 -6 -5 3 -10 2
-10 -3 0 -5 -15 -13 -32 -17 -36 -8 -45 -11 -53 -15 -3 -1 -14 -4 -25 -5 -11
-1 -22 -3 -25 -4 -3 0 -6 0 -7 1 -2 1 -13 -4 -24 -10 -12 -6 -25 -8 -28 -4
-11 10 -40 8 -48 -3 -5 -6 -8 -5 -8 3 0 6 -5 12 -11 12 -5 0 -7 -5 -3 -11 5
-8 2 -9 -11 -2 -10 6 -26 8 -36 6 -11 -3 -19 -1 -19 4 0 5 -13 8 -30 7 -16 -1
-30 2 -30 6 0 5 -9 7 -20 5 -11 -2 -20 1 -20 6 0 6 -4 7 -10 4 -5 -3 -10 -2
-10 4 0 6 -7 8 -15 5 -8 -4 -15 -1 -15 7 0 7 -3 9 -7 6 -3 -4 -12 1 -20 11 -8
9 -11 10 -7 3 4 -9 -6 -6 -24 8 -18 12 -32 27 -32 32 0 6 -5 7 -10 4 -6 -3
-13 1 -16 9 -3 9 -12 16 -20 16 -8 0 -14 7 -14 15 0 8 -4 15 -8 15 -5 0 -17 7
-28 16 -10 8 -12 13 -4 9 8 -4 3 5 -12 19 -16 14 -28 30 -28 36 0 5 -4 10 -9
10 -10 0 -27 39 -23 53 1 4 -6 7 -15 7 -9 0 -14 3 -10 6 3 4 -1 20 -9 36 -9
16 -13 36 -10 44 3 8 0 14 -8 14 -8 0 -12 13 -11 40 1 22 -2 40 -7 40 -4 0 -8
5 -8 11 0 5 5 7 12 3 7 -5 8 -3 3 6 -13 21 -13 90 -1 90 6 0 4 5 -4 11 -12 9
-13 12 -1 16 11 5 11 7 0 14 -8 5 -9 9 -3 9 5 0 9 14 8 30 -1 17 3 30 8 30 6
0 8 6 5 14 -3 8 -3 17 1 21 4 4 7 10 8 13 0 4 6 20 12 35 7 16 12 32 12 37 0
5 8 13 17 19 10 5 15 13 11 17 -4 4 2 15 14 25 11 11 17 19 12 19 -5 1 2 7 16
15 14 8 19 14 12 15 -10 0 -10 3 2 15 8 8 18 15 23 15 4 0 19 14 32 30 13 17
29 30 36 30 7 0 16 7 19 16 3 8 10 12 16 9 5 -3 10 1 10 10 0 9 4 14 9 10 5
-3 12 -1 16 5 3 5 15 10 26 10 10 0 19 5 19 11 0 6 9 9 20 6 11 -3 18 -2 15 3
-3 4 2 11 11 14 8 3 12 2 9 -3 -3 -5 8 -3 25 6 17 8 37 12 45 9 8 -3 17 0 21
6 4 7 9 6 15 -3 6 -10 9 -11 9 -1 0 6 7 12 16 12 9 0 12 -5 8 -12 -5 -10 -4
-10 6 -1 7 6 19 9 28 6 11 -5 13 -3 7 8 -7 11 -6 12 6 3 8 -6 33 -12 57 -13z"/>
<path d="M20 7679 c0 -5 -5 -7 -12 -3 -6 4 -3 -4 8 -18 13 -17 21 -22 26 -14
5 7 8 4 8 -8 0 -11 2 -17 6 -14 3 3 39 -27 81 -68 42 -41 80 -74 85 -74 4 0 8
-7 8 -15 0 -8 6 -14 13 -12 6 1 11 -4 9 -11 -1 -8 2 -11 8 -7 5 3 10 1 10 -5
0 -6 4 -8 10 -5 6 3 10 -2 10 -11 0 -10 3 -15 6 -11 7 7 50 -35 46 -46 -1 -4
2 -6 7 -5 5 2 20 -10 35 -25 14 -15 26 -26 26 -23 0 4 10 -4 23 -16 12 -13 21
-26 19 -30 -1 -5 2 -8 8 -8 5 0 23 -13 40 -30 16 -16 40 -34 51 -41 18 -9 19
-13 8 -21 -11 -8 -10 -9 3 -4 10 3 20 1 23 -4 3 -5 14 -7 25 -5 11 2 20 -1 20
-7 0 -6 6 -5 16 2 12 11 15 11 12 -1 -2 -9 4 -13 16 -11 12 2 16 -1 10 -9 -4
-8 -3 -10 5 -5 6 4 18 2 26 -4 11 -9 15 -9 15 -1 0 8 8 6 23 -4 13 -8 26 -12
29 -9 4 3 17 0 29 -7 13 -6 39 -14 58 -16 20 -3 38 -8 41 -12 3 -3 16 -8 30
-9 14 -2 31 -9 38 -14 6 -6 12 -7 12 -3 0 4 8 1 17 -6 11 -10 14 -10 9 -1 -4
6 -2 12 3 12 6 0 11 -5 11 -12 0 -6 3 -8 7 -5 3 4 12 2 20 -5 7 -6 16 -8 20
-4 3 3 15 -2 25 -11 17 -15 20 -15 28 -3 8 12 10 12 10 1 0 -7 6 -11 15 -7 8
3 15 1 15 -4 0 -6 3 -9 8 -9 4 1 9 0 12 -1 5 -2 46 -9 68 -12 6 -1 12 -4 12
-8 0 -3 8 -6 18 -7 44 -3 62 -8 62 -16 0 -5 7 -7 15 -4 8 4 17 2 21 -4 3 -6
12 -8 20 -5 8 3 14 1 14 -5 0 -6 4 -8 9 -5 15 9 42 -5 34 -18 -4 -6 1 -5 10 3
10 8 17 9 17 3 0 -6 9 -9 20 -7 11 2 24 -3 30 -13 6 -12 9 -13 10 -3 0 11 3
11 15 1 8 -7 15 -9 15 -5 0 5 10 0 22 -11 12 -10 18 -13 13 -5 -6 10 -2 12 16
6 13 -4 29 -11 35 -16 6 -5 19 -7 28 -3 9 3 16 1 16 -5 0 -6 13 -11 29 -11 17
0 32 -4 36 -10 3 -5 12 -7 20 -3 8 3 15 0 15 -7 0 -6 5 -8 10 -5 6 4 22 -1 37
-10 14 -9 22 -12 19 -6 -4 6 -2 11 3 11 6 0 11 -4 11 -9 0 -6 9 -8 20 -6 11 2
20 0 20 -4 0 -5 19 -12 43 -16 68 -12 70 -13 77 -25 5 -9 9 -9 14 -1 5 7 12 7
26 -1 10 -7 16 -17 12 -23 -3 -5 1 -4 10 2 8 7 17 10 20 8 3 -3 16 -8 28 -10
13 -3 27 -10 32 -17 6 -10 8 -10 8 0 0 10 9 9 35 -7 19 -11 37 -16 40 -11 3 4
19 2 35 -6 16 -9 34 -13 40 -9 5 3 10 1 10 -5 0 -7 7 -10 15 -7 8 4 17 2 20
-3 3 -5 12 -7 20 -3 8 3 15 1 15 -4 0 -5 6 -10 13 -11 26 -2 71 -13 102 -26
25 -11 36 -11 45 -3 10 9 11 9 6 0 -4 -8 -1 -13 8 -14 19 -2 18 -1 76 -19 25
-7 51 -13 58 -13 6 0 12 -4 12 -8 0 -5 6 -6 14 -3 8 3 17 0 21 -5 3 -6 11 -9
16 -6 5 4 9 3 10 -2 5 -62 3 -83 -11 -84 -10 0 -11 -2 -2 -6 15 -6 16 -43 1
-43 -5 0 -7 -5 -4 -10 4 -6 10 -8 15 -5 5 3 5 -9 0 -26 -6 -19 -6 -48 -1 -70
6 -28 6 -39 -3 -39 -6 0 -4 -5 4 -10 13 -8 13 -10 1 -10 -12 0 -12 -3 -3 -12
15 -15 16 -32 1 -22 -8 4 -8 1 -1 -13 6 -10 9 -33 8 -51 -1 -18 1 -35 4 -37 3
-2 7 -21 8 -42 3 -46 6 -62 17 -87 5 -12 3 -21 -6 -27 -11 -7 -11 -9 3 -9 11
0 15 -5 12 -15 -4 -8 -1 -21 5 -29 6 -7 8 -16 4 -19 -3 -4 0 -14 8 -24 12 -15
12 -16 -1 -8 -13 8 -13 6 -2 -8 8 -9 10 -22 6 -28 -5 -8 -3 -9 6 -4 8 5 11 3
8 -6 -3 -8 1 -26 8 -40 7 -15 10 -29 7 -33 -4 -3 -2 -6 4 -6 6 0 10 -10 9 -22
0 -13 4 -22 10 -21 7 1 10 -6 7 -17 -3 -11 -1 -20 4 -20 5 0 10 -6 11 -12 3
-34 11 -53 21 -51 6 2 10 0 9 -5 -1 -4 4 -23 11 -42 8 -19 13 -38 12 -42 0 -5
4 -8 10 -8 5 0 8 -4 5 -9 -4 -5 -2 -11 3 -13 5 -1 11 -10 13 -18 2 -8 10 -22
18 -30 8 -8 16 -22 18 -30 2 -8 10 -22 18 -31 8 -8 14 -21 14 -28 0 -7 5 -9
12 -5 7 5 8 3 4 -5 -5 -7 0 -18 10 -26 11 -8 15 -15 11 -15 -4 0 2 -11 15 -25
59 -64 66 -73 61 -79 -3 -3 2 -8 11 -12 9 -3 16 -10 16 -15 0 -4 20 -29 45
-55 25 -25 45 -50 45 -56 0 -5 5 -6 10 -3 5 3 10 -1 10 -9 0 -9 8 -16 17 -16
9 0 14 -3 11 -6 -4 -3 7 -18 23 -33 16 -15 25 -31 21 -35 -4 -4 -2 -6 3 -4 14
4 75 -43 69 -54 -3 -4 1 -8 9 -8 8 0 28 -14 46 -30 17 -17 31 -28 31 -24 0 3
7 -1 15 -8 32 -29 45 -38 53 -38 4 0 17 -8 28 -17 48 -43 67 -57 60 -45 -11
18 -2 15 29 -12 16 -14 32 -23 37 -20 4 3 8 0 8 -5 0 -6 8 -11 18 -11 14 0 15
2 2 10 -11 7 -11 10 -2 10 10 0 10 5 2 20 -8 15 -8 20 2 20 9 0 9 3 -2 10 -8
5 -10 10 -4 10 8 0 9 11 4 35 -5 24 -4 35 4 35 6 0 4 5 -4 10 -8 5 -10 10 -4
10 8 0 9 11 4 35 -5 24 -4 35 4 35 6 0 4 5 -4 10 -12 8 -12 10 -1 10 11 0 11
3 1 15 -7 9 -8 15 -2 15 6 0 7 13 2 35 -5 24 -4 35 4 35 6 0 4 5 -4 10 -8 5
-10 10 -5 10 6 0 -5 9 -22 20 -18 11 -33 25 -33 32 0 6 -3 9 -6 5 -10 -9 -94
66 -94 85 0 10 -2 10 -9 -1 -7 -11 -10 -9 -16 8 -3 11 -13 21 -21 21 -8 0 -12
5 -9 10 3 6 -1 10 -9 10 -9 0 -16 4 -16 9 0 4 -15 25 -34 45 -19 20 -33 36
-31 36 2 0 -15 19 -38 42 -23 23 -41 43 -39 45 7 10 0 23 -14 23 -8 0 -13 4
-10 9 3 4 -3 16 -14 26 -11 10 -20 24 -20 32 0 7 -4 13 -10 13 -5 0 -10 7 -10
15 0 9 -7 18 -15 21 -8 4 -13 10 -10 14 3 5 0 14 -7 22 -7 7 -14 20 -16 28 -2
8 -9 20 -16 25 -7 6 -11 16 -9 23 3 6 0 12 -6 12 -6 0 -10 3 -9 8 4 13 -13 52
-23 52 -5 0 -9 11 -9 24 0 14 -4 28 -10 31 -5 3 -10 17 -10 31 0 17 -4 23 -12
18 -8 -5 -9 0 -6 14 4 12 2 25 -3 28 -5 3 -7 9 -4 14 3 5 1 11 -5 15 -6 4 -8
11 -5 16 4 5 0 9 -7 9 -9 0 -9 3 2 10 11 7 11 10 2 10 -7 0 -10 5 -7 10 3 6 2
10 -3 10 -5 0 -8 18 -8 39 1 22 -1 39 -4 39 -18 -1 -21 4 -10 17 7 8 8 15 3
15 -5 0 -9 18 -9 41 1 22 -2 43 -7 46 -4 2 -5 8 -2 13 3 5 1 11 -4 14 -6 4 -6
18 -1 35 4 16 5 32 2 36 -9 9 -9 205 0 205 4 0 3 11 -2 25 -7 17 -6 25 1 25 6
0 9 6 6 14 -3 7 0 19 6 26 9 10 9 11 0 6 -8 -4 -13 -1 -13 8 0 9 4 16 8 16 4
0 7 15 7 33 -1 17 4 35 9 39 8 5 7 8 -1 8 -7 0 -10 7 -7 15 4 8 10 12 15 9 5
-3 6 9 2 27 -4 23 -3 30 5 25 8 -5 10 -2 6 8 -3 9 -3 24 1 34 19 42 9 60 -29
53 -4 -1 -14 3 -20 9 -7 5 -16 7 -19 3 -4 -3 -7 -2 -7 4 0 6 -12 11 -26 11
-15 0 -29 5 -33 11 -4 6 -15 9 -23 6 -9 -4 -19 -2 -22 4 -4 6 -13 8 -21 4 -8
-3 -15 0 -15 7 0 6 -6 10 -12 7 -7 -2 -29 2 -48 9 -19 7 -48 15 -63 17 -16 2
-32 9 -36 16 -6 10 -10 10 -16 2 -4 -8 -11 -9 -19 -2 -11 9 -85 31 -113 33 -7
1 -13 6 -13 12 0 6 -5 4 -10 -4 -7 -11 -10 -11 -10 -2 0 7 -4 10 -10 7 -5 -3
-10 -3 -10 2 0 4 -14 9 -31 10 -17 1 -37 7 -43 12 -9 7 -17 7 -26 -2 -8 -8
-11 -8 -7 -1 8 13 -20 27 -34 18 -5 -3 -9 -1 -9 3 0 5 -8 9 -17 10 -41 3 -63
8 -63 13 0 5 -18 9 -57 12 -7 1 -13 6 -13 11 0 5 -7 6 -16 3 -9 -4 -22 -2 -28
3 -6 5 -22 11 -36 13 -14 1 -30 9 -36 17 -8 10 -13 11 -18 2 -5 -8 -13 -8 -27
-1 -10 6 -19 8 -19 4 0 -3 -6 -1 -13 5 -8 6 -17 8 -20 4 -4 -3 -7 -1 -7 6 0 7
-4 10 -9 6 -5 -3 -12 -1 -15 3 -3 5 -17 8 -31 7 -14 -2 -25 1 -25 6 0 6 -4 7
-10 4 -5 -3 -10 0 -10 7 0 9 -3 9 -10 -2 -7 -11 -10 -11 -10 -2 0 7 -4 11 -9
7 -5 -3 -12 -1 -16 5 -4 6 -10 8 -15 5 -5 -3 -24 1 -41 10 -17 9 -29 13 -26 7
4 -5 -9 -4 -28 2 -19 6 -35 14 -35 18 0 3 -10 4 -22 0 -11 -3 -19 -1 -15 4 3
5 -7 10 -21 11 -45 4 -92 15 -92 22 0 4 -14 8 -32 9 -18 2 -35 6 -38 10 -3 4
-15 7 -27 6 -13 -1 -23 3 -23 8 0 5 -4 6 -10 3 -5 -3 -10 -2 -10 3 0 5 -14 8
-30 7 -17 -1 -30 2 -30 6 0 5 -7 5 -17 2 -10 -4 -14 -2 -9 5 4 7 -1 10 -14 7
-11 -2 -27 3 -35 11 -10 10 -15 11 -15 3 0 -9 -4 -8 -15 1 -8 7 -15 9 -15 4 0
-4 -5 -3 -12 4 -16 16 -31 15 -22 0 4 -7 -1 -6 -12 3 -10 9 -24 14 -31 12 -6
-2 -14 0 -17 6 -4 6 -13 8 -21 4 -8 -3 -15 -1 -15 4 0 5 -14 10 -32 11 -18 2
-35 6 -38 11 -3 4 -13 7 -22 5 -10 -1 -18 2 -18 7 0 4 -7 6 -15 3 -9 -4 -15 0
-15 7 0 11 -2 11 -10 -1 -8 -13 -10 -13 -15 1 -4 10 -16 14 -35 13 -17 -1 -30
3 -30 9 0 6 -3 7 -7 4 -3 -4 -12 -2 -20 4 -10 9 -13 8 -13 -2 -1 -11 -3 -11
-13 1 -7 9 -19 15 -27 15 -8 -1 -24 6 -34 14 -11 9 -16 10 -12 4 9 -17 1 -16
-32 1 -15 7 -35 12 -44 11 -10 -2 -18 0 -18 4 0 4 -12 8 -27 9 -15 1 -29 5
-32 10 -6 6 -14 8 -63 14 -10 1 -18 6 -18 10 0 4 -9 5 -20 3 -11 -2 -20 1 -20
6 0 6 -9 7 -20 4 -11 -3 -20 -2 -20 3 0 6 -12 9 -26 7 -14 -1 -28 3 -31 11 -2
7 -11 10 -18 8 -7 -3 -28 2 -45 11 -18 9 -29 12 -26 6 4 -6 -9 -4 -29 4 -19 9
-35 12 -35 9 0 -4 -7 -1 -15 6 -8 7 -22 10 -30 6 -11 -4 -14 -2 -9 6 5 7 0 9
-14 6 -13 -4 -22 -1 -22 5 0 6 -3 8 -6 4 -3 -3 -23 1 -44 8 -21 7 -41 11 -44
8 -3 -4 -6 -1 -6 4 0 6 -8 10 -17 8 -10 -1 -23 2 -30 7 -7 5 -17 7 -23 3 -5
-3 -10 -1 -10 6 0 8 -4 8 -15 -1 -13 -11 -14 -10 -9 4 3 9 3 16 0 16 -3 0 -6
-5 -6 -11z"/>
<path d="M9795 7678 c-24 -14 -41 -19 -77 -21 -14 -1 -24 -5 -22 -8 2 -4 -3
-9 -11 -13 -8 -3 -15 0 -15 7 0 8 -4 6 -10 -3 -5 -8 -10 -12 -10 -7 0 4 -13 1
-28 -7 -19 -10 -33 -11 -45 -5 -12 7 -15 6 -12 -3 3 -8 -2 -14 -12 -15 -44 -3
-63 -8 -63 -16 0 -4 -4 -6 -9 -2 -5 3 -13 0 -17 -6 -5 -8 -8 -8 -14 1 -5 9
-11 8 -21 -2 -8 -7 -26 -13 -41 -13 -15 1 -24 -3 -21 -8 3 -6 -5 -8 -20 -5
-15 3 -24 1 -21 -3 6 -10 -7 -12 -43 -9 -13 1 -23 -4 -23 -10 0 -6 -5 -8 -10
-5 -6 4 -17 1 -25 -5 -8 -6 -19 -9 -25 -5 -5 3 -10 2 -10 -3 0 -9 -3 -10 -55
-15 -16 -2 -40 -9 -53 -16 -12 -6 -26 -9 -31 -7 -5 3 -11 -1 -14 -9 -5 -10
-13 -12 -36 -5 -22 6 -28 5 -25 -4 3 -7 -5 -13 -18 -13 -30 -2 -50 -7 -65 -16
-6 -4 -18 -4 -26 -1 -8 3 -18 1 -22 -5 -3 -6 -17 -11 -30 -11 -13 0 -26 -4
-30 -10 -3 -5 -12 -7 -20 -4 -8 3 -22 -2 -31 -11 -12 -12 -19 -13 -24 -5 -6 9
-9 9 -14 1 -4 -6 -12 -9 -17 -6 -5 4 -9 1 -9 -6 0 -7 -3 -10 -6 -6 -3 3 -22 0
-42 -7 -21 -7 -45 -12 -54 -10 -10 1 -18 -2 -18 -8 0 -6 -8 -8 -19 -5 -10 2
-29 -4 -42 -14 -17 -13 -27 -15 -36 -7 -8 7 -13 7 -13 1 0 -9 -73 -28 -92 -24
-5 0 -8 -3 -8 -7 0 -4 -12 -9 -27 -10 -15 -1 -32 -7 -37 -12 -13 -13 -29 -13
-21 0 3 6 -1 7 -9 4 -9 -3 -16 -11 -16 -17 0 -6 -3 -7 -6 -4 -4 3 -15 2 -25
-4 -14 -7 -19 -6 -19 3 0 8 -3 9 -8 3 -4 -6 -20 -16 -35 -23 -23 -10 -27 -10
-21 0 6 10 5 11 -8 1 -8 -7 -18 -10 -21 -6 -4 3 -7 1 -7 -4 0 -6 -11 -10 -25
-8 -14 1 -25 -2 -25 -7 0 -5 -4 -6 -10 -3 -5 3 -10 2 -10 -4 0 -6 -14 -9 -30
-7 -17 2 -34 -2 -38 -8 -4 -6 -11 -11 -17 -12 -34 -1 -85 -18 -85 -28 0 -7 -3
-6 -9 2 -6 11 -11 10 -25 -3 -9 -9 -16 -12 -16 -6 0 6 -5 11 -10 11 -6 0 -9
-3 -9 -7 3 -19 -3 -22 -26 -13 -20 8 -27 6 -31 -5 -4 -8 -10 -13 -14 -10 -5 3
-11 1 -15 -4 -3 -5 -14 -8 -25 -6 -11 2 -20 0 -20 -5 0 -4 -8 -7 -17 -5 -10 1
-23 -2 -30 -7 -7 -5 -17 -7 -23 -3 -5 3 -10 2 -10 -4 0 -5 -9 -8 -20 -6 -11 2
-22 -1 -25 -6 -4 -5 -11 -7 -16 -4 -5 4 -9 2 -9 -4 0 -5 -8 -8 -17 -6 -10 1
-24 -2 -30 -8 -7 -5 -13 -6 -13 -2 0 4 -7 2 -15 -5 -8 -6 -19 -9 -25 -5 -6 4
-16 2 -23 -3 -7 -5 -37 -15 -67 -23 -30 -7 -60 -16 -66 -21 -6 -4 -16 -2 -23
5 -10 9 -12 9 -9 -2 2 -7 -3 -16 -11 -19 -10 -3 -11 0 -5 9 7 12 5 12 -9 1 -9
-8 -22 -10 -28 -6 -8 5 -9 3 -4 -6 6 -10 4 -12 -8 -7 -10 3 -17 2 -17 -4 0 -6
-4 -7 -10 -4 -5 3 -18 1 -28 -4 -10 -5 -29 -11 -43 -13 -13 -2 -30 -7 -38 -12
-10 -7 -12 -5 -7 5 5 10 4 9 -6 -1 -11 -13 -103 -40 -145 -43 -7 0 -13 -5 -13
-10 0 -5 -6 -7 -14 -4 -8 3 -17 3 -20 -1 -7 -7 -41 -14 -73 -16 -11 -1 -19 -4
-16 -8 2 -5 -3 -9 -11 -9 -57 -5 -75 -30 -51 -69 5 -8 8 -23 7 -32 -2 -10 1
-18 5 -18 5 0 10 -10 11 -22 3 -50 8 -74 16 -87 7 -10 6 -12 -4 -6 -9 6 -11 4
-5 -6 14 -21 15 -40 18 -231 3 -123 0 -178 -7 -178 -6 0 -4 -5 4 -10 11 -7 11
-10 2 -10 -7 0 -10 -5 -7 -10 4 -6 1 -17 -5 -25 -10 -11 -10 -15 -1 -15 7 0 9
-4 6 -10 -3 -5 -8 -26 -11 -47 -2 -20 -10 -41 -17 -45 -9 -6 -8 -8 3 -8 10 0
11 -3 3 -11 -6 -6 -9 -18 -6 -25 3 -8 1 -14 -5 -14 -6 0 -8 -10 -4 -22 3 -12
1 -19 -4 -15 -6 3 -11 -5 -12 -19 -3 -46 -5 -54 -13 -54 -5 0 -6 -7 -3 -15 4
-8 1 -15 -6 -15 -6 0 -9 -4 -5 -9 3 -5 1 -12 -5 -16 -6 -4 -8 -11 -5 -16 4 -5
1 -9 -4 -9 -6 0 -10 -3 -9 -7 1 -5 -3 -23 -9 -41 -7 -18 -12 -35 -12 -39 1 -3
-3 -9 -8 -12 -7 -5 -43 -69 -77 -138 -6 -13 -14 -23 -18 -23 -5 0 -8 -7 -8
-15 0 -8 -4 -15 -10 -15 -5 0 -10 -5 -10 -10 0 -11 -10 -24 -42 -61 -10 -10
-15 -19 -11 -19 4 0 -2 -7 -13 -15 -10 -8 -16 -15 -12 -15 3 0 -13 -20 -37
-44 -24 -25 -40 -47 -37 -50 3 -3 -2 -6 -11 -6 -9 0 -17 -7 -17 -15 0 -9 -11
-20 -25 -25 -14 -5 -25 -16 -25 -25 0 -8 -5 -15 -10 -15 -6 0 -25 -16 -43 -35
-17 -19 -35 -35 -39 -35 -4 0 -24 -15 -44 -34 -21 -19 -43 -32 -48 -29 -6 4
-8 3 -4 -2 4 -4 0 -14 -8 -22 -8 -8 -11 -19 -8 -25 12 -20 13 -58 1 -58 -8 0
-8 -3 -2 -8 13 -9 15 -62 2 -62 -5 0 -5 -5 2 -13 8 -10 7 -17 -1 -25 -9 -9 -9
-12 0 -12 15 0 12 -31 -3 -42 -6 -5 -6 -8 1 -8 12 0 12 -28 1 -47 -4 -6 -3
-15 3 -18 8 -5 8 -11 0 -20 -8 -10 -8 -15 2 -21 20 -13 38 -13 35 -2 -1 6 7
12 17 14 10 1 23 9 27 16 5 7 9 9 9 3 0 -5 5 -2 11 8 6 9 14 15 19 12 4 -3 11
2 14 11 3 8 10 13 15 9 5 -3 17 5 25 17 9 12 16 18 16 13 0 -6 7 -1 16 10 8
11 17 19 19 18 12 -7 26 -2 20 7 -3 6 0 10 8 10 8 0 18 7 21 16 3 8 10 12 16
9 5 -3 10 -1 10 4 0 6 7 11 16 11 8 0 13 4 10 8 -3 5 6 15 19 22 13 7 22 16
20 20 -3 5 7 11 21 14 15 4 24 9 21 12 -7 7 35 50 45 47 7 -3 11 10 10 27 0 3
13 15 29 25 16 11 32 28 35 38 3 10 8 16 12 13 3 -3 16 10 29 29 13 19 28 35
32 35 5 0 12 11 15 25 4 14 10 24 14 21 4 -2 23 19 42 49 19 29 39 50 44 47 5
-3 6 0 2 6 -3 6 1 17 9 25 8 9 15 20 15 26 0 6 5 11 12 11 6 0 8 3 5 7 -4 3 3
18 15 31 13 14 16 22 8 18 -8 -4 -6 0 5 9 11 9 19 17 17 18 -4 3 10 41 18 47
6 5 62 118 66 133 1 4 2 8 4 10 1 1 3 9 5 17 2 8 10 31 19 51 8 20 12 39 9 43
-4 3 -1 6 6 6 8 0 11 7 7 15 -3 8 -1 15 4 15 5 0 7 7 4 15 -4 8 -2 15 3 15 8
0 12 15 15 58 1 6 4 12 8 12 3 0 6 10 7 23 1 12 4 33 8 47 3 14 7 34 9 46 2
11 7 27 11 34 6 9 4 11 -5 5 -9 -5 -11 -4 -6 4 9 13 17 54 20 96 1 17 5 36 9
43 5 7 4 12 -3 12 -7 0 -8 6 -2 18 4 9 7 36 6 59 -1 26 2 40 8 37 6 -4 3 5 -7
19 -11 17 -13 27 -5 32 6 4 8 16 4 27 -4 15 -3 18 6 13 9 -6 11 -4 4 6 -5 8
-7 22 -5 33 2 12 -1 16 -10 11 -8 -6 -10 -4 -4 6 12 18 16 61 6 54 -5 -2 -6 6
-4 19 5 24 28 40 75 50 14 3 34 9 44 13 13 5 15 3 10 -8 -4 -8 -1 -7 6 3 8 9
27 18 43 20 17 1 35 10 42 18 8 10 12 11 13 3 0 -9 9 -8 35 3 20 8 40 12 45 9
6 -4 10 -1 10 5 0 7 7 10 15 6 8 -3 15 -2 15 3 0 4 6 8 13 8 6 0 21 4 31 9 15
6 18 4 12 -7 -6 -11 -4 -10 6 1 12 13 27 19 66 22 6 1 12 5 12 10 0 4 5 8 11
8 5 0 7 -5 3 -11 -3 -6 5 -4 18 5 14 9 28 13 31 9 4 -3 7 -2 7 3 0 8 22 14 68
17 6 0 12 3 12 7 0 3 8 7 18 8 9 1 26 3 37 4 11 2 26 10 33 18 12 13 13 13 6
0 -6 -12 -5 -13 7 -4 8 5 21 10 29 9 8 0 18 3 21 8 4 5 18 10 33 10 14 0 26 3
26 7 0 5 11 7 24 6 15 -2 27 3 31 12 4 11 9 12 19 3 10 -8 16 -8 25 3 7 8 19
12 27 9 8 -3 14 0 14 7 0 6 4 8 10 5 5 -3 18 -1 28 4 13 7 23 6 32 -2 9 -8 11
-8 6 0 -9 17 48 35 64 20 9 -9 11 -9 7 -1 -4 8 11 16 41 25 26 7 49 13 52 14
62 19 95 25 107 21 8 -3 11 -1 8 4 -6 9 10 14 43 13 6 -1 12 2 12 6 0 8 9 10
54 13 14 1 22 6 19 11 -3 5 3 7 13 6 11 -2 30 3 43 10 14 8 21 8 17 2 -5 -7
-1 -9 8 -5 9 3 16 10 16 15 0 4 7 6 15 3 9 -4 15 0 15 7 0 11 3 11 10 -1 7
-11 10 -11 10 -2 0 7 5 10 10 7 6 -3 10 -2 10 3 0 6 6 9 13 9 25 -2 97 16 97
24 0 4 9 6 20 4 11 -2 20 1 20 6 0 6 4 8 9 5 5 -4 12 0 14 6 4 10 6 9 6 -1 1
-11 4 -11 16 -1 8 7 15 10 15 7 0 -3 16 1 35 9 20 8 40 12 45 9 6 -4 10 -2 10
3 0 5 12 10 26 10 15 0 30 6 35 13 7 12 9 11 9 -1 1 -12 3 -11 11 3 8 14 14
15 31 6 12 -6 18 -7 14 -1 -7 11 40 26 54 17 6 -4 10 -1 10 6 0 6 8 9 20 6 13
-3 18 -1 13 6 -4 6 0 8 10 4 9 -3 19 -2 22 3 4 6 14 10 23 10 9 0 39 20 65 45
27 25 53 45 58 45 6 0 8 4 5 9 -3 4 6 13 20 20 14 6 22 16 19 21 -3 6 1 10 9
10 9 0 16 5 16 10 0 6 7 10 16 10 8 0 13 4 10 8 -3 5 4 16 15 25 10 9 19 15
19 12 0 -3 29 24 65 60 36 36 68 65 71 65 3 0 25 20 50 44 24 25 44 43 44 41
0 -2 16 12 35 31 20 19 40 34 46 34 8 0 8 4 0 14 -9 11 -6 13 14 10 22 -2 24
0 14 12 -6 8 -12 14 -13 14 0 0 -10 -6 -21 -12z"/>
<path d="M8881 6805 c-1 -6 -11 -12 -23 -12 -13 -1 -24 -6 -26 -11 -1 -5 -16
-8 -33 -6 -21 3 -28 0 -23 -8 5 -8 2 -9 -9 -5 -10 3 -17 3 -17 -1 0 -4 -10 -8
-23 -9 -40 -4 -55 -9 -73 -23 -11 -9 -15 -10 -10 -2 4 6 2 12 -3 12 -6 0 -11
-5 -11 -11 0 -6 -7 -9 -15 -6 -8 4 -17 2 -21 -4 -3 -6 -12 -8 -20 -5 -8 3 -14
1 -14 -4 0 -5 -9 -7 -20 -5 -11 2 -22 -1 -25 -6 -4 -5 -11 -7 -16 -4 -5 4 -9
2 -9 -4 0 -5 -9 -8 -20 -6 -11 2 -20 -1 -20 -7 0 -5 -6 -8 -14 -5 -8 3 -17 3
-20 -1 -7 -7 -30 -13 -61 -15 -11 -1 -26 -8 -34 -15 -12 -11 -15 -11 -22 0 -7
11 -9 11 -9 0 0 -7 -4 -10 -10 -7 -5 3 -10 2 -10 -3 0 -5 -6 -9 -12 -10 -7 0
-26 -4 -43 -8 -16 -4 -38 -7 -47 -8 -10 0 -18 -4 -18 -8 0 -4 -20 -10 -45 -14
-25 -3 -45 -10 -45 -15 0 -5 -5 -9 -11 -9 -5 0 -7 6 -3 13 4 6 -2 4 -13 -6
-16 -14 -22 -15 -26 -5 -4 11 -6 11 -6 0 -1 -7 -5 -10 -11 -7 -5 3 -10 1 -10
-4 0 -6 -3 -10 -7 -9 -15 4 -93 -14 -98 -22 -3 -5 -14 -7 -25 -5 -11 2 -20 -1
-20 -7 0 -5 -7 -8 -15 -5 -8 4 -17 2 -21 -4 -3 -6 -12 -8 -20 -5 -8 3 -14 1
-14 -4 0 -5 -9 -7 -20 -5 -11 2 -20 -1 -20 -7 0 -6 -9 -8 -20 -5 -11 3 -20 2
-20 -2 0 -8 -3 -8 -50 -13 -14 -2 -27 -6 -30 -9 -3 -4 -16 -10 -29 -14 -18 -5
-22 -4 -17 6 5 9 3 9 -6 -1 -13 -15 -21 -18 -68 -26 -14 -3 -32 -7 -40 -11 -8
-3 -17 -7 -20 -8 -3 0 -30 -7 -60 -14 -30 -8 -60 -18 -67 -23 -7 -6 -18 -8
-25 -6 -28 10 -35 -18 -34 -130 1 -62 -1 -112 -4 -112 -11 0 -5 -49 8 -62 9
-9 12 -9 12 1 0 11 3 11 17 0 11 -10 14 -10 9 -1 -8 13 -6 14 35 16 15 1 33 7
41 14 11 9 17 9 26 0 9 -9 12 -8 12 6 0 9 4 15 8 12 10 -6 92 13 108 25 6 5
16 3 24 -4 10 -9 11 -9 6 1 -4 7 -1 12 8 13 25 2 30 4 44 13 7 4 16 5 19 2 4
-3 17 1 30 9 15 10 23 12 23 4 0 -8 4 -8 13 -1 7 6 26 14 42 17 34 7 58 13 65
15 3 1 9 2 14 1 4 -1 13 3 20 8 6 5 25 12 41 15 17 2 30 5 30 6 0 2 11 4 25 5
14 1 33 5 42 9 9 4 22 4 29 0 7 -4 9 -3 5 4 -8 13 25 25 48 16 9 -4 16 -1 16
6 0 7 8 10 20 7 11 -3 20 -1 20 3 0 5 19 11 43 15 23 4 48 12 55 18 7 5 15 7
19 4 3 -3 19 1 35 9 23 12 28 12 22 2 -6 -10 -4 -10 9 1 9 7 17 10 17 6 0 -4
7 -2 15 5 8 6 19 9 25 5 6 -4 16 -2 23 3 7 5 24 12 40 16 31 7 54 26 140 111
34 33 57 53 53 45 -5 -8 3 -4 16 10 14 14 23 28 21 33 -2 4 1 7 7 7 6 0 24 14
40 30 17 17 30 28 30 25 0 -3 12 7 26 22 15 15 30 27 35 26 5 -2 8 3 7 10 -2
6 4 11 12 9 8 -2 12 -1 8 3 -8 9 16 35 32 35 6 0 8 5 5 10 -3 6 -1 10 5 10 17
0 62 49 57 63 -3 7 -6 7 -6 2z"/>
<path d="M950 6794 c0 -3 11 -19 25 -36 14 -16 25 -27 25 -23 0 4 17 -11 38
-32 74 -73 120 -112 126 -106 3 4 6 1 6 -6 0 -16 26 -42 34 -34 3 4 6 -1 6
-10 0 -9 4 -17 10 -17 5 0 31 -21 57 -46 26 -26 57 -53 70 -61 13 -8 20 -19
17 -24 -3 -5 1 -9 9 -9 8 0 22 -10 31 -22 9 -13 14 -17 10 -9 -5 10 -3 12 7 5
8 -4 21 -9 29 -11 8 -1 16 -7 18 -13 3 -8 8 -7 18 1 11 9 14 9 14 0 0 -7 4
-10 8 -7 5 3 20 -1 35 -9 15 -8 27 -10 27 -5 0 5 13 2 30 -6 16 -9 34 -13 40
-9 5 3 10 1 10 -5 0 -6 4 -9 9 -5 5 3 17 -2 25 -11 9 -8 16 -11 16 -6 0 10 69
-6 80 -18 3 -3 16 -6 30 -8 35 -3 52 -7 73 -16 10 -5 21 -6 24 -2 3 3 12 1 19
-5 7 -5 25 -12 41 -15 15 -3 33 -7 38 -8 6 -1 21 -8 34 -15 19 -11 22 -11 15
1 -6 10 -5 11 8 1 8 -7 18 -10 21 -6 4 3 7 1 7 -5 0 -6 9 -9 20 -7 11 2 20 0
20 -6 0 -5 5 -9 11 -9 5 0 7 5 3 12 -4 7 8 1 26 -12 18 -13 30 -19 26 -12 -4
7 -2 12 3 12 6 0 11 -4 11 -10 0 -5 3 -9 8 -8 14 4 82 -13 78 -20 -2 -4 17 -8
42 -9 25 -2 48 -7 51 -11 3 -5 14 -8 24 -6 9 1 17 -2 17 -7 0 -6 5 -7 10 -4 6
4 17 1 25 -5 8 -6 19 -9 24 -6 5 4 12 2 16 -3 3 -5 14 -8 25 -6 11 2 20 0 20
-4 0 -5 13 -11 28 -13 28 -4 28 -3 28 44 0 26 -3 48 -6 48 -8 0 -5 44 4 58 4
7 3 12 -2 12 -11 0 -9 51 2 69 4 6 2 11 -4 11 -8 0 -8 6 0 20 7 14 7 20 0 20
-5 0 -10 7 -10 15 0 9 -6 12 -15 9 -8 -4 -22 -1 -30 6 -8 7 -15 9 -15 5 0 -4
-6 -2 -13 4 -8 6 -17 8 -20 4 -4 -3 -13 -1 -20 5 -8 7 -17 9 -20 5 -4 -3 -14
0 -23 8 -9 8 -27 12 -40 11 -13 -2 -24 1 -24 6 0 6 -11 9 -25 7 -14 -1 -25 1
-25 4 0 4 -10 7 -22 8 -11 1 -24 6 -27 10 -3 4 -17 9 -31 11 -26 3 -62 9 -70
12 -3 1 -8 2 -12 1 -5 0 -8 3 -8 9 0 5 -6 7 -14 4 -8 -3 -17 0 -21 6 -5 8 -11
7 -23 -2 -12 -10 -14 -10 -8 0 6 11 -10 15 -40 11 -4 0 -10 4 -13 9 -3 6 -22
12 -41 14 -19 1 -37 5 -40 8 -3 3 -20 10 -37 17 -25 8 -33 8 -33 0 0 -8 -3 -8
-9 1 -4 7 -17 15 -27 17 -10 2 -19 4 -19 5 0 2 -36 10 -57 12 -10 1 -18 5 -18
9 0 4 -13 6 -30 5 -16 -1 -30 2 -30 7 0 4 -4 5 -10 2 -5 -3 -10 -2 -10 4 0 5
-9 8 -20 6 -13 -3 -20 2 -21 13 0 11 -2 12 -6 4 -2 -6 -9 -10 -14 -6 -10 6
-47 15 -66 16 -7 1 -13 5 -13 9 0 4 -11 6 -25 4 -14 -1 -28 2 -32 8 -4 6 -1 7
7 2 8 -5 11 -4 7 1 -3 5 -21 9 -41 8 -20 -1 -36 3 -36 8 0 6 -7 8 -15 5 -8 -4
-17 -2 -20 4 -4 5 -11 7 -16 4 -5 -4 -9 -2 -9 4 0 5 -9 8 -20 6 -11 -2 -20 1
-20 7 0 5 -6 8 -14 5 -7 -3 -19 0 -26 6 -10 9 -11 9 -6 0 5 -9 2 -11 -8 -7 -9
3 -16 9 -16 13 0 4 -13 8 -29 9 -16 1 -44 8 -62 16 -19 7 -40 11 -46 9 -7 -3
-13 0 -13 7 0 6 -4 8 -10 5 -5 -3 -10 -2 -10 2 0 5 -12 8 -27 7 -16 0 -30 2
-33 6 -7 9 -60 22 -60 14z"/>
<path d="M1876 5985 c4 -8 10 -15 16 -15 5 0 7 -4 4 -9 -3 -5 5 -12 19 -15 14
-4 25 -13 25 -21 0 -8 4 -15 9 -15 4 0 25 -16 45 -35 21 -19 42 -35 47 -35 5
0 9 -6 9 -14 0 -7 14 -20 31 -28 17 -9 30 -18 30 -22 -2 -20 0 -27 7 -22 5 3
19 -6 30 -19 12 -14 27 -25 33 -25 5 0 7 -4 4 -10 -3 -5 -2 -10 4 -10 17 0 91
-73 84 -83 -3 -6 -2 -7 4 -4 5 3 21 -5 36 -19 15 -14 27 -21 27 -17 0 4 5 1
10 -7 7 -11 10 -11 10 -2 0 8 5 10 13 5 6 -4 15 -8 20 -9 4 -1 8 -3 10 -4 1
-1 14 -3 29 -4 14 0 30 -4 34 -8 4 -5 17 -8 29 -8 11 0 27 -6 34 -12 11 -11
12 -10 6 2 -8 13 -6 13 8 1 9 -7 24 -11 32 -7 8 3 15 1 15 -5 0 -6 7 -9 15 -5
8 3 15 0 15 -6 0 -9 3 -9 11 -1 9 9 15 8 25 -2 8 -7 23 -11 34 -8 11 3 20 0
20 -6 0 -8 4 -8 14 1 11 11 12 16 2 28 -21 25 -30 44 -18 36 7 -4 4 8 -5 26
-33 66 -34 68 -21 68 6 0 3 6 -8 14 -10 8 -16 18 -12 21 4 4 1 19 -6 34 -7 14
-11 32 -8 40 2 8 0 11 -5 8 -5 -3 -10 0 -10 8 0 8 4 15 9 15 5 0 3 6 -4 13
-16 17 -74 37 -82 30 -3 -4 -6 2 -6 13 0 12 -3 15 -8 7 -8 -12 -43 -13 -52 -1
-5 5 -56 18 -87 20 -7 1 -13 5 -13 9 0 4 -9 5 -20 2 -11 -3 -20 -1 -20 4 0 6
-10 9 -22 9 -13 -1 -29 2 -35 7 -7 5 -19 7 -27 4 -8 -3 -16 -2 -18 3 -2 6 -15
11 -30 12 -16 1 -28 7 -28 12 0 5 -3 6 -6 3 -4 -3 -16 -2 -27 4 -15 9 -18 8
-12 -2 6 -8 4 -10 -6 -3 -14 9 -34 14 -57 16 -7 1 -10 8 -7 16 4 12 3 13 -10
2 -9 -7 -22 -9 -32 -4 -10 4 -21 8 -25 9 -5 2 -9 3 -10 5 -3 2 -51 9 -85 13
-13 1 -23 5 -23 10 0 4 -4 7 -10 7 -5 0 -7 -7 -4 -15z"/>
<path d="M7930 5989 c0 -5 -4 -7 -10 -4 -5 3 -15 3 -22 -1 -11 -7 -41 -13 -75
-16 -7 -1 -13 -5 -13 -9 0 -4 -9 -6 -20 -4 -11 2 -20 0 -20 -5 0 -4 -8 -7 -17
-5 -10 1 -24 -2 -30 -7 -7 -6 -20 -8 -28 -4 -8 3 -15 1 -15 -5 0 -6 -4 -7 -10
-4 -5 3 -10 1 -10 -5 0 -8 -6 -8 -20 0 -16 8 -22 8 -26 -4 -3 -8 -13 -13 -22
-11 -9 1 -21 0 -27 -4 -10 -6 -28 -10 -57 -13 -10 -1 -18 -6 -18 -10 0 -4 -9
-5 -20 -3 -11 2 -20 0 -20 -6 0 -5 -5 -9 -11 -9 -5 0 -7 6 -3 13 4 6 -1 5 -12
-4 -10 -9 -29 -15 -41 -14 -13 1 -23 -3 -23 -8 0 -5 -7 -7 -15 -4 -8 4 -17 2
-20 -4 -4 -5 -10 -7 -14 -4 -5 2 -17 -2 -27 -9 -13 -10 -23 -11 -31 -4 -9 7
-13 7 -13 -2 0 -7 -6 -10 -14 -7 -17 7 -27 -12 -39 -73 -3 -14 -6 -26 -8 -27
-1 -2 -2 -6 -3 -10 -1 -5 -4 -12 -7 -18 -4 -5 -5 -18 -4 -27 2 -10 0 -18 -5
-18 -4 0 -11 -15 -15 -32 -4 -18 -9 -36 -10 -40 -1 -5 -3 -13 -4 -19 0 -5 -5
-8 -9 -5 -5 3 -8 -5 -7 -17 1 -12 -5 -28 -14 -35 -9 -8 -10 -11 -3 -7 6 3 12
0 12 -7 0 -10 2 -10 9 1 6 9 10 10 16 2 5 -9 11 -9 22 1 9 7 24 13 33 13 9 0
25 7 35 15 11 9 16 10 11 3 -4 -7 -2 -13 3 -13 6 0 11 4 11 9 0 6 9 8 20 6 11
-2 20 -1 20 3 0 4 8 9 18 10 9 1 31 3 47 5 17 2 38 7 47 11 10 5 29 9 43 10
14 0 25 5 25 9 0 5 4 6 9 3 9 -6 50 23 93 66 15 16 32 28 38 28 6 0 9 4 6 9
-3 4 6 13 20 20 15 7 22 16 18 23 -5 8 -2 9 10 5 10 -4 15 -3 11 3 -4 6 8 18
24 28 17 9 34 25 37 35 3 10 8 16 11 14 2 -3 29 19 59 49 30 30 54 52 54 50 0
-2 16 12 36 30 20 19 40 32 45 29 5 -4 6 1 3 9 -3 9 -1 16 6 16 6 0 8 5 5 10
-8 13 -25 13 -25 -1z"/>
</g>
</svg>
